<svg width="500" height="250" xmlns="http://www.w3.org/2000/svg">
 <!-- Created with Method Draw - http://github.com/duopixel/Method-Draw/ -->

 <g>
  <title>background</title>
  <rect fill="none" id="canvas_background" height="252" width="502" y="-1" x="-1"/>
  <g display="none" overflow="visible" y="0" x="0" height="100%" width="100%" id="canvasGrid">
   <rect fill="url(#gridpattern)" stroke-width="0" y="0" x="0" height="100%" width="100%"/>
  </g>
 </g>
 <g>
  <title>Layer 1</title>
  <g stroke="null" transform="rotate(-179.98785400390625 253.00003051757815,125.00677490234375) " id="svg_23">
   <g stroke="null" transform="matrix(6.529599478696443,0,0,-4.477095006344775,-62.30329668403567,68.65892790700275) " id="svg_5">
    <g stroke="null" id="svg_6">
     <path stroke="null" id="svg_7" fill="#fbb117" d="m35.700805,1.906195l0,11.026l-17.778,-17.778l17.778,-17.781l0,11.163c20.952,-1.58 37.88,-12.49 41.993,-26.64c0.627,2.158 0.96,4.393 0.96,6.682c0,17.283 -18.8,31.508 -42.953,33.328z"/>
    </g>
   </g>
   <g stroke="null" transform="matrix(6.529599478696443,0,0,-4.477095006344775,-62.30329668403567,68.65892790700275) " id="svg_8"/>
   <g stroke="null" transform="matrix(6.529599478696443,0,0,-4.477095006344775,-62.30329668403567,68.65892790700275) " id="svg_9"/>
   <g stroke="null" transform="matrix(6.529599478696443,0,0,-4.477095006344775,-62.30329668403567,68.65892790700275) " id="svg_10"/>
   <g stroke="null" transform="matrix(6.529599478696443,0,0,-4.477095006344775,-62.30329668403567,68.65892790700275) " id="svg_11"/>
   <g stroke="null" transform="matrix(6.529599478696443,0,0,-4.477095006344775,-62.30329668403567,68.65892790700275) " id="svg_12"/>
   <g stroke="null" transform="matrix(6.529599478696443,0,0,-4.477095006344775,-62.30329668403567,68.65892790700275) " id="svg_13"/>
   <g stroke="null" transform="matrix(6.529599478696443,0,0,-4.477095006344775,-62.30329668403567,68.65892790700275) " id="svg_14"/>
   <g stroke="null" transform="matrix(6.529599478696443,0,0,-4.477095006344775,-62.30329668403567,68.65892790700275) " id="svg_15"/>
   <g stroke="null" transform="matrix(6.529599478696443,0,0,-4.477095006344775,-62.30329668403567,68.65892790700275) " id="svg_16"/>
   <g stroke="null" transform="matrix(6.529599478696443,0,0,-4.477095006344775,-62.30329668403567,68.65892790700275) " id="svg_17"/>
   <g stroke="null" transform="matrix(6.529599478696443,0,0,-4.477095006344775,-62.30329668403567,68.65892790700275) " id="svg_18"/>
   <g stroke="null" transform="matrix(6.529599478696443,0,0,-4.477095006344775,-62.30329668403567,68.65892790700275) " id="svg_19"/>
   <g stroke="null" transform="matrix(6.529599478696443,0,0,-4.477095006344775,-62.30329668403567,68.65892790700275) " id="svg_20"/>
   <g stroke="null" transform="matrix(6.529599478696443,0,0,-4.477095006344775,-62.30329668403567,68.65892790700275) " id="svg_21"/>
   <g stroke="null" transform="matrix(6.529599478696443,0,0,-4.477095006344775,-62.30329668403567,68.65892790700275) " id="svg_22"/>
  </g>
 </g>
</svg>